<svg xmlns="http://www.w3.org/2000/svg" width="24" height="24" viewBox="0 0 24 24">
<path class="st0" d="M20,15h3.2c0.5,0,0.9,0.4,0.9,0.9v0.2c0,0.5-0.4,0.9-0.9,0.9H20v3.2c0,0.5-0.4,0.9-0.9,0.9h-0.2
	c-0.5,0-0.9-0.4-0.9-0.9V17h-3.2c-0.5,0-0.9-0.4-0.9-0.9v-0.2c0-0.5,0.4-0.9,0.9-0.9H18v-3.2c0-0.5,0.4-0.9,0.9-0.9h0.2
	c0.5,0,0.9,0.4,0.9,0.9V15z M11.1,21H0.9C0.4,21,0,20.6,0,20.1v-0.1C0,19.4,0.4,19,0.9,19h10.1c0.5,0,0.9,0.4,0.9,0.9v0.1
	C12,20.6,11.6,21,11.1,21z M11.1,17H0.9C0.4,17,0,16.6,0,16v-0.1C0,15.4,0.4,15,0.9,15h10.1c0.5,0,0.9,0.4,0.9,0.9V16
	C12,16.6,11.6,17,11.1,17z M11.1,13H0.9C0.4,13,0,12.6,0,12.1v-0.1C0,11.4,0.4,11,0.9,11h10.1c0.5,0,0.9,0.4,0.9,0.9v0.1
	C12,12.6,11.6,13,11.1,13z M23.1,9H0.9C0.4,9,0,8.6,0,8.1V7.9C0,7.4,0.4,7,0.9,7h22.1C23.6,7,24,7.4,24,7.9v0.1
	C24,8.6,23.6,9,23.1,9z M23.1,5H0.9C0.4,5,0,4.6,0,4.1V3.9C0,3.4,0.4,3,0.9,3h22.1C23.6,3,24,3.4,24,3.9v0.1C24,4.6,23.6,5,23.1,5z"
	/>
</svg>
