<?xml version="1.0" encoding="utf-8"?>
<!-- Generator: Adobe Illustrator 23.0.2, SVG Export Plug-In . SVG Version: 6.00 Build 0)  -->
<svg version="1.1" id="a06c302e-d314-4e90-9699-1f6e2daff423"
	 xmlns="http://www.w3.org/2000/svg" xmlns:xlink="http://www.w3.org/1999/xlink" x="0px" y="0px" viewBox="0 0 250 185.2"
	 style="enable-background:new 0 0 250 185.2;" xml:space="preserve">
<path d="M203.7,86.2h-0.6v-8.5c0-42.9-34.8-77.6-77.6-77.6h-1.5C81.1,0,46.3,34.8,46.3,77.6v8.5C20.7,86.1,0,106.9,0,132.5v6.4
	c0,25.6,20.7,46.3,46.3,46.3h157.4c25.6,0,46.3-20.7,46.3-46.3v-6.4C250,106.9,229.3,86.2,203.7,86.2z M165.1,140.2l-1.8,1.8
	c0,0,0,0,0,0c-2.9,2.9-7.6,2.9-10.5,0l-28.1-28.1L96.6,142c0,0,0,0,0,0c-2.9,2.9-7.6,2.9-10.5,0l-1.8-1.8c0,0,0,0,0,0
	c-2.9-2.9-2.9-7.6,0-10.5l28.1-28.1L84.3,73.5c-2.9-2.9-2.9-7.6,0-10.5l1.8-1.8c0,0,0,0,0,0c2.9-2.9,7.6-2.9,10.5,0l28.1,28.1
	l28.1-28.1c0,0,0,0,0,0c2.9-2.9,7.6-2.9,10.5,0l1.8,1.8c2.9,2.9,2.9,7.6,0,10.5L137,101.6l28.1,28.1c0,0,0,0,0,0
	C168,132.6,168,137.3,165.1,140.2z"/>
</svg>
