<svg xmlns="http://www.w3.org/2000/svg" width="24" height="24" viewBox="0 0 24 24">
<path d="M2.3,22H1.7c-1,0-1.7-0.8-1.7-1.7v-0.6c0-1,0.8-1.7,1.7-1.7h0.6c1,0,1.7,0.8,1.7,1.7v0.6C4,21.2,3.2,22,2.3,22z M2.3,10H1.7
	c-1,0-1.7,0.8-1.7,1.7v0.6c0,1,0.8,1.7,1.7,1.7h0.6c1,0,1.7-0.8,1.7-1.7v-0.6C4,10.8,3.2,10,2.3,10z M2.3,2H1.7C0.8,2,0,2.8,0,3.7
	v0.6C0,5.2,0.8,6,1.7,6h0.6C3.2,6,4,5.2,4,4.3V3.7C4,2.8,3.2,2,2.3,2z M7,3.7v0.6C7,5.2,7.8,6,8.7,6h13.6c1,0,1.7-0.8,1.7-1.7V3.7
	c0-1-0.8-1.7-1.7-1.7H8.7C7.8,2,7,2.8,7,3.7z M8.7,14h13.6c1,0,1.7-0.8,1.7-1.7v-0.6c0-1-0.8-1.7-1.7-1.7H8.7c-1,0-1.7,0.8-1.7,1.7
	v0.6C7,13.2,7.8,14,8.7,14z M8.7,22h13.6c1,0,1.7-0.8,1.7-1.7v-0.6c0-1-0.8-1.7-1.7-1.7H8.7c-1,0-1.7,0.8-1.7,1.7v0.6
	C7,21.2,7.8,22,8.7,22z"/>
</svg>
