<svg xmlns="http://www.w3.org/2000/svg" width="24" height="24" viewBox="0 0 24 24">
    <circle cx="17.2" cy="21.2" r="1.6"/>
    <circle cx="10.4" cy="21.2" r="1.6"/>
    <path d="M21.7,13.2l2.2-7.2c0.3-0.9-0.2-1.9-0.9-1.9H8.5C7.8,4.2,7.4,5,7.5,5.9L9,13.1c0.1,0.6,0.5,1,0.9,1h10.9 C21.2,14,21.6,13.7,21.7,13.2z"/>
    <path d="M20.8,16.2H8.6c-0.4,0-0.8-0.4-1-0.9L6.2,9.5L4.6,2.7c-0.1-0.5-0.5-0.9-1-0.9H1c-0.7,0-1.2,0.8-0.9,1.6l0.1,0.3
        c0.1,0.5,0.5,0.8,0.9,0.8h0.8c0.4,0,0.8,0.4,1,0.9l1,4.3l2,8.3c0.1,0.5,0.5,0.9,1,0.9h13.8c0.4,0,0.8-0.3,0.9-0.7l0.1-0.3
        C22,17.1,21.5,16.2,20.8,16.2z"/>
</svg>
