<svg id="ee9a34dc-f829-4515-a262-c19af5438e57" data-name="a06c302e-d314-4e90-9699-1f6e2daff423" xmlns="http://www.w3.org/2000/svg" viewBox="0 0 250 185.19"><title>Artboard 1</title><path d="M203.7,86.15h-.62V77.63A77.63,77.63,0,0,0,125.45,0h-1.52A77.63,77.63,0,0,0,46.3,77.63v8.52A46.3,46.3,0,0,0,0,132.45v6.44a46.3,46.3,0,0,0,46.3,46.3H89.62A14.33,14.33,0,0,0,104,170.87V123.19H83.67a3.31,3.31,0,0,1-2.41-5.56l41.32-44.3a3.31,3.31,0,0,1,4.84,0l41.32,44.3a3.31,3.31,0,0,1-2.41,5.56H146.05v47.68a14.33,14.33,0,0,0,14.33,14.32H203.7a46.3,46.3,0,0,0,46.3-46.3v-6.44A46.3,46.3,0,0,0,203.7,86.15Z"/></svg>