<svg xmlns="http://www.w3.org/2000/svg" xmlns:xlink="http://www.w3.org/1999/xlink" x="0px" y="0px" viewBox="0 0 599.6 474.7" style="enable-background:new 0 0 599.6 474.7;" xml:space="preserve">
    <style type="text/css">
        .st0{fill:#323131;}
        .st1{fill:#111111;}
    </style>
    <g>
        <path class="st0" d="M599.6,115.3c-1.9,13.7-4.2,29.5-6.4,45.4c-6.1,43.7-12.3,87.4-18.5,131.1c-0.6,4.3-0.4,8.6,0.4,12.9
            c3.3,16.5,6.4,33,9.5,49.6c2.6,13.8-4.1,25-17.5,28.9c-4.2,1.2-6,3.5-6.5,7.6c-1.6,12.4-3.4,24.8-5.2,37.1
            c-2.5,17.3-12.3,24.6-29.5,22.2c-55.9-7.9-111.8-15.8-167.8-23.7c-6.3-0.8-12.7-0.6-18.8,0.7c-79.8,15.4-159.7,30.8-239.5,46.1
            c-1.6,0.3-3.3,0.7-4.9,0.9c-16,2.7-27.2-4.9-30.3-20.8c-5-25.8-10-51.7-15-77.5C33.3,291.2,17,206.6,0.7,122.1
            c-3.3-17.3,4.4-28.4,21.8-31.7c25.7-4.9,51.3-10,77.1-14.7c5.3-1,7.8-3.3,8.3-8.7c0.6-6.6,1.7-13.2,2.8-19.8
            c2.4-13.6,12.5-21.4,26.1-19.5C175.4,33,214,38.4,252.6,43.9c4.9,0.7,10,0.5,14.8-0.5c74.1-14.3,148.2-28.6,222.3-42.8
            c10-1.9,18.4,0.3,25.3,8.1c3.1,3.5,4.5,7.7,5.4,12.2c3.4,17.7,6.9,35.3,10.3,53c1.8,9.4,1.7,9.4,11.2,10.7
            c12.7,1.8,25.4,3.4,38.1,5.3C592.2,91.8,599.7,100.8,599.6,115.3z"/>
        <path class="st1" d="M514.5,403.1c-22.3-3.2-44.5-6.3-66.8-9.5C337,378,226.3,362.4,115.6,346.8c-7.2-1-7.5-1.5-6.5-8.6
            c11.7-82.8,23.5-165.6,35.2-248.5c0.7-5,1.5-9.9,2-14.9c0.4-4.7,2.5-6.2,7.2-5.5c25.4,3.7,50.8,7.2,76.2,10.8l321.2,45.3
            c6.8,1,7.2,1.4,6.3,8.3c-7.7,54.3-15.4,108.5-23.1,162.8c-4.7,33.3-9.4,66.7-14.1,100C519.6,399.8,519.8,403.9,514.5,403.1z"/>
        <path class="st1" d="M75.6,287.5c-3.7-18.9-7.1-36.3-10.5-53.8C59,202,52.9,170.2,46.8,138.5c-1.8-9.1-1.4-9.6,7.4-11.3
            c12.6-2.4,25.2-4.8,37.8-7.2c7.7-1.5,8.3-1,7.2,6.6C92.1,176.4,85.1,226.2,78,276C77.6,279.4,77.8,282.9,75.6,287.5z"/>
        <path class="st1" d="M199.1,405c-16.7,3.2-32.3,6.3-48,9.3c-14.2,2.7-28.4,5.5-42.7,8.2c-5.9,1.1-6.6,0.7-7.8-5.2
            c-1.5-7.3-2.8-14.7-4.3-22.1c-0.7-3.6,0.5-5.5,4.5-4.9c32.1,4.5,64.2,9.1,96.3,13.6C197.5,403.9,197.8,404.2,199.1,405z"/>
        <path class="st1" d="M392.1,63.5c2.8-2.2,5-2.1,7.1-2.5c25.3-4.9,50.7-9.8,76.1-14.6c6.2-1.2,6.7-0.9,8,5.4
            c1.3,6.5,2.5,13.1,3.7,19.6c0.6,3.4-0.5,5.3-4.2,4.8C452.9,72,423.1,67.8,392.1,63.5z"/>
        <path class="st0" d="M488.7,369.5c0.4,4.2-2.3,4-5.2,3.7c-21-2.7-42-5.3-63-8l-266.2-33.5c-5.1-0.6-10.2-1.3-15.4-2
            c-3.3-0.4-3.6-2-1.4-4.2c3.6-3.7,7.3-7.3,10.9-11c19.4-19.4,38.9-38.8,58.2-58.4c3.5-3.5,6.4-4.1,10.8-1.6
            c21.3,11.6,42.9,23,64.4,34.3c6.6,3.5,7.4,3.3,12.3-2.3c25.8-29.2,51.5-58.5,77.2-87.8c6.9-7.9,7.5-7.9,12.3,1.3
            c13.5,25.5,26.9,51,40.3,76.5c2.5,4.8,3.2,4.9,7.1,1.1c10.4-10.1,20.9-20.1,31.2-30.2c2.8-2.8,4.4-2.6,5.1,1.5
            c7,39.7,14,79.4,21,119.1C488.6,368.5,488.6,369,488.7,369.5z"/>
        <path class="st0" d="M237.5,201.8c-22.9,0-41.6-18.4-41.7-41c-0.1-23.2,18.5-42,41.7-42.2s42,18.5,42.2,41.7l0,0
            C279.6,183.8,261.2,201.8,237.5,201.8z"/>
    </g>
</svg>